<svg width="16" height="16" viewBox="0 0 16 16" fill="none" xmlns="http://www.w3.org/2000/svg">
<path opacity="0.6" fill-rule="evenodd" clip-rule="evenodd" d="M11.7203 11.2772L14.9888 15.1127L14.4219 15.5999L11.1445 11.7645C10.0166 12.6207 8.74698 13.0488 7.33563 13.0488C6.47936 13.0488 5.66001 12.882 4.87759 12.5484C4.09517 12.2147 3.42198 11.7659 2.85801 11.202C2.29404 10.638 1.84524 9.96484 1.51163 9.18239C1.17801 8.39995 1.01119 7.5806 1.01117 6.72436C1.01115 5.86811 1.17797 5.04877 1.51163 4.26633C1.84529 3.48388 2.29408 2.81069 2.85801 2.24674C3.42193 1.68279 4.09513 1.234 4.87759 0.900361C5.66006 0.566722 6.47941 0.399902 7.33563 0.399902C8.19185 0.399902 9.01119 0.566722 9.79366 0.900361C10.5761 1.234 11.2493 1.68279 11.8132 2.24674C12.3772 2.81069 12.826 3.48388 13.1596 4.26633C13.4933 5.04877 13.6601 5.86811 13.6601 6.72436C13.6601 7.60423 13.4888 8.43686 13.1463 9.22226C12.8038 10.0077 12.3285 10.6927 11.7202 11.2773L11.7203 11.2772ZM7.3357 12.3047C8.34547 12.3047 9.27849 12.0552 10.1348 11.5562C10.991 11.0572 11.6687 10.3796 12.1676 9.52336C12.6666 8.66711 12.9161 7.73409 12.9161 6.72429C12.9162 5.71449 12.6667 4.78147 12.1676 3.92522C11.6686 3.06898 10.991 2.39137 10.1348 1.89238C9.27854 1.3934 8.34552 1.14391 7.3357 1.14391C6.32587 1.14391 5.39285 1.3934 4.53663 1.89238C3.68041 2.39137 3.0028 3.06898 2.50379 3.92522C2.00479 4.78147 1.75529 5.71449 1.75532 6.72429C1.75534 7.73409 2.00483 8.66711 2.50379 9.52336C3.00275 10.3796 3.68036 11.0572 4.53663 11.5562C5.3929 12.0552 6.32592 12.3047 7.3357 12.3047Z" fill="white"/>
</svg>
